<svg width="18" height="21" viewBox="0 0 18 21" fill="none" xmlns="http://www.w3.org/2000/svg">
<g clip-path="url(#clip0_118_675)">
<path d="M3.85714 0C1.72768 0 0 1.72355 0 3.84793V16.6744C0 18.7987 1.72768 20.5223 3.85714 20.5223H15.4286H16.7143C17.4254 20.5223 18 19.9491 18 19.2397C18 18.5302 17.4254 17.957 16.7143 17.957V15.3917C17.4254 15.3917 18 14.8185 18 14.1091V1.28264C18 0.573181 17.4254 0 16.7143 0H15.4286H3.85714ZM3.85714 15.3917H14.1429V17.957H3.85714C3.14598 17.957 2.57143 17.3838 2.57143 16.6744C2.57143 15.9649 3.14598 15.3917 3.85714 15.3917ZM5.14286 5.77189C5.14286 5.41917 5.43214 5.13057 5.78571 5.13057H13.5C13.8536 5.13057 14.1429 5.41917 14.1429 5.77189C14.1429 6.12462 13.8536 6.41322 13.5 6.41322H5.78571C5.43214 6.41322 5.14286 6.12462 5.14286 5.77189ZM5.78571 7.69586H13.5C13.8536 7.69586 14.1429 7.98445 14.1429 8.33718C14.1429 8.68991 13.8536 8.9785 13.5 8.9785H5.78571C5.43214 8.9785 5.14286 8.68991 5.14286 8.33718C5.14286 7.98445 5.43214 7.69586 5.78571 7.69586Z" fill="white"/>
</g>
<defs>
<clipPath id="clip0_118_675">
<rect width="18" height="20.5223" fill="white"/>
</clipPath>
</defs>
</svg>
