<svg width="21" height="25" viewBox="0 0 21 25" fill="none" xmlns="http://www.w3.org/2000/svg">
<g clip-path="url(#clip0_118_630)">
<path d="M19.0692 0.475403C18.3694 0.475403 13.471 1.96604 13.471 8.67388V13.8911C13.471 15.5354 14.7262 16.8724 16.2701 16.8724H17.6696V22.8349C17.6696 23.6594 18.2951 24.3255 19.0692 24.3255C19.8433 24.3255 20.4688 23.6594 20.4688 22.8349V16.8724V11.6551V1.96604C20.4688 1.14153 19.8433 0.475403 19.0692 0.475403ZM3.67411 1.22072C3.67411 0.838744 3.40732 0.521985 3.04868 0.480061C2.69005 0.438137 2.37077 0.689681 2.29205 1.05768L0.966846 7.40684C0.905615 7.70031 0.875 7.99844 0.875 8.29656C0.875 10.4347 2.41014 12.1908 4.37388 12.3818V22.8349C4.37388 23.6594 4.99931 24.3255 5.77344 24.3255C6.54757 24.3255 7.17299 23.6594 7.17299 22.8349V12.3818C9.13674 12.1908 10.6719 10.4347 10.6719 8.29656C10.6719 7.99844 10.6413 7.70031 10.58 7.40684L9.25483 1.05768C9.1761 0.685023 8.84808 0.438137 8.49382 0.480061C8.13956 0.521985 7.87277 0.838744 7.87277 1.22072V7.47206C7.87277 7.7236 7.68033 7.92857 7.44415 7.92857C7.2211 7.92857 7.03741 7.74689 7.01554 7.50932L6.46884 1.1555C6.43823 0.768871 6.13645 0.475403 5.77344 0.475403C5.41043 0.475403 5.10865 0.768871 5.07803 1.1555L4.53571 7.50932C4.51384 7.74689 4.33015 7.92857 4.10709 7.92857C3.87092 7.92857 3.67848 7.7236 3.67848 7.47206V1.22072H3.67411ZM5.78656 8.30122H5.77344H5.76032L5.77344 8.26862L5.78656 8.30122Z" fill="#A69E9E"/>
</g>
<defs>
<clipPath id="clip0_118_630">
<rect width="19.5938" height="23.8501" fill="white" transform="translate(0.875 0.475403)"/>
</clipPath>
</defs>
</svg>
