<svg width="20" height="23" viewBox="0 0 20 23" fill="none" xmlns="http://www.w3.org/2000/svg">
<g clip-path="url(#clip0_118_546)">
<path d="M10.0001 0C9.20994 0 8.57155 0.642383 8.57155 1.4375V2.3C5.31262 2.96484 2.85726 5.8668 2.85726 9.34375V10.1883C2.85726 12.2996 2.08494 14.3391 0.692086 15.9203L0.361729 16.2932C-0.0132708 16.7154 -0.102557 17.3219 0.125122 17.8385C0.352801 18.3551 0.866193 18.6875 1.42869 18.6875H18.5716C19.1341 18.6875 19.643 18.3551 19.8751 17.8385C20.1073 17.3219 20.0135 16.7154 19.6385 16.2932L19.3082 15.9203C17.9153 14.3391 17.143 12.3041 17.143 10.1883V9.34375C17.143 5.8668 14.6876 2.96484 11.4287 2.3V1.4375C11.4287 0.642383 10.7903 0 10.0001 0ZM12.0224 22.16C12.5582 21.6209 12.8573 20.8887 12.8573 20.125H10.0001H7.14298C7.14298 20.8887 7.44209 21.6209 7.9778 22.16C8.51351 22.699 9.24119 23 10.0001 23C10.7591 23 11.4867 22.699 12.0224 22.16Z" fill="#A69E9E"/>
</g>
<defs>
<clipPath id="clip0_118_546">
<rect width="20" height="23" fill="white"/>
</clipPath>
</defs>
</svg>
