<svg width="5" height="18" viewBox="0 0 5 18" fill="none" xmlns="http://www.w3.org/2000/svg">
<path d="M2.5 13.0625C1.91984 13.0625 1.36344 13.293 0.953204 13.7032C0.542968 14.1134 0.3125 14.6698 0.3125 15.25C0.3125 15.8302 0.542968 16.3866 0.953204 16.7968C1.36344 17.207 1.91984 17.4375 2.5 17.4375C3.08016 17.4375 3.63656 17.207 4.0468 16.7968C4.45703 16.3866 4.6875 15.8302 4.6875 15.25C4.6875 14.6698 4.45703 14.1134 4.0468 13.7032C3.63656 13.293 3.08016 13.0625 2.5 13.0625ZM2.5 6.8125C1.91984 6.8125 1.36344 7.04297 0.953204 7.4532C0.542968 7.86344 0.3125 8.41984 0.3125 9C0.3125 9.58016 0.542968 10.1366 0.953204 10.5468C1.36344 10.957 1.91984 11.1875 2.5 11.1875C3.08016 11.1875 3.63656 10.957 4.0468 10.5468C4.45703 10.1366 4.6875 9.58016 4.6875 9C4.6875 8.41984 4.45703 7.86344 4.0468 7.4532C3.63656 7.04297 3.08016 6.8125 2.5 6.8125ZM4.6875 2.75C4.6875 2.16984 4.45703 1.61344 4.0468 1.2032C3.63656 0.792968 3.08016 0.5625 2.5 0.5625C1.91984 0.5625 1.36344 0.792968 0.953204 1.2032C0.542968 1.61344 0.3125 2.16984 0.3125 2.75C0.3125 3.33016 0.542968 3.88656 0.953204 4.2968C1.36344 4.70703 1.91984 4.9375 2.5 4.9375C3.08016 4.9375 3.63656 4.70703 4.0468 4.2968C4.45703 3.88656 4.6875 3.33016 4.6875 2.75Z" fill="#A69E9E"/>
</svg>
