<svg width="20" height="24" viewBox="0 0 20 24" fill="none" xmlns="http://www.w3.org/2000/svg">
<g clip-path="url(#clip0_118_629)">
<path d="M4.91518 0.475403C2.71917 0.475403 0.9375 2.36848 0.9375 4.70182V18.7899C0.9375 21.1232 2.71917 23.0163 4.91518 23.0163H16.8482H18.1741C18.9075 23.0163 19.5 22.3867 19.5 21.6075C19.5 20.8282 18.9075 20.1987 18.1741 20.1987V17.3811C18.9075 17.3811 19.5 16.7515 19.5 15.9723V1.88421C19.5 1.10496 18.9075 0.475403 18.1741 0.475403H16.8482H4.91518ZM4.91518 17.3811H15.5223V20.1987H4.91518C4.18179 20.1987 3.58929 19.5691 3.58929 18.7899C3.58929 18.0106 4.18179 17.3811 4.91518 17.3811ZM6.24107 6.81503C6.24107 6.4276 6.5394 6.11062 6.90402 6.11062H14.8594C15.224 6.11062 15.5223 6.4276 15.5223 6.81503C15.5223 7.20245 15.224 7.51943 14.8594 7.51943H6.90402C6.5394 7.51943 6.24107 7.20245 6.24107 6.81503ZM6.90402 8.92823H14.8594C15.224 8.92823 15.5223 9.24521 15.5223 9.63264C15.5223 10.0201 15.224 10.337 14.8594 10.337H6.90402C6.5394 10.337 6.24107 10.0201 6.24107 9.63264C6.24107 9.24521 6.5394 8.92823 6.90402 8.92823Z" fill="#A69E9E"/>
</g>
<defs>
<clipPath id="clip0_118_629">
<rect width="18.5625" height="22.5409" fill="white" transform="translate(0.9375 0.475403)"/>
</clipPath>
</defs>
</svg>
