<svg width="25" height="24" viewBox="0 0 25 24" fill="none" xmlns="http://www.w3.org/2000/svg">
<path d="M0.53125 1.53558C0.53125 0.948066 0.975627 0.475403 1.52798 0.475403H3.41762C4.3313 0.475403 5.14114 1.04083 5.51907 1.88897H22.5881C23.6804 1.88897 24.4778 2.99333 24.1912 4.11535L22.4885 10.8431C22.1355 12.2301 20.9518 13.1975 19.6021 13.1975H7.62052L7.84478 14.4565C7.93615 14.9557 8.3473 15.3179 8.8249 15.3179H20.7982C21.3505 15.3179 21.7949 15.7906 21.7949 16.3781C21.7949 16.9656 21.3505 17.4383 20.7982 17.4383H8.8249C7.38795 17.4383 6.15449 16.3516 5.88869 14.8541L3.74572 2.88289C3.71664 2.71503 3.57959 2.59576 3.41762 2.59576H1.52798C0.975627 2.59576 0.53125 2.1231 0.53125 1.53558ZM5.84716 20.9722C5.84716 20.6937 5.89873 20.418 5.99891 20.1608C6.09909 19.9035 6.24592 19.6698 6.43104 19.4729C6.61615 19.276 6.8359 19.1198 7.07776 19.0132C7.31962 18.9067 7.57884 18.8518 7.84063 18.8518C8.10242 18.8518 8.36164 18.9067 8.6035 19.0132C8.84536 19.1198 9.06511 19.276 9.25022 19.4729C9.43534 19.6698 9.58217 19.9035 9.68235 20.1608C9.78253 20.418 9.8341 20.6937 9.8341 20.9722C9.8341 21.2506 9.78253 21.5264 9.68235 21.7836C9.58217 22.0409 9.43534 22.2746 9.25022 22.4715C9.06511 22.6684 8.84536 22.8246 8.6035 22.9311C8.36164 23.0377 8.10242 23.0925 7.84063 23.0925C7.57884 23.0925 7.31962 23.0377 7.07776 22.9311C6.8359 22.8246 6.61615 22.6684 6.43104 22.4715C6.24592 22.2746 6.09909 22.0409 5.99891 21.7836C5.89873 21.5264 5.84716 21.2506 5.84716 20.9722ZM19.8014 18.8518C20.3301 18.8518 20.8372 19.0752 21.211 19.4729C21.5849 19.8705 21.7949 20.4098 21.7949 20.9722C21.7949 21.5345 21.5849 22.0739 21.211 22.4715C20.8372 22.8692 20.3301 23.0925 19.8014 23.0925C19.2727 23.0925 18.7657 22.8692 18.3918 22.4715C18.018 22.0739 17.808 21.5345 17.808 20.9722C17.808 20.4098 18.018 19.8705 18.3918 19.4729C18.7657 19.0752 19.2727 18.8518 19.8014 18.8518Z" fill="#A69E9E"/>
</svg>
