<svg width="22" height="21" viewBox="0 0 22 21" fill="none" xmlns="http://www.w3.org/2000/svg">
<path d="M21.3071 10.232C21.3071 10.9194 20.7699 11.4578 20.1612 11.4578H19.0152L19.0403 17.5753C19.0403 17.6784 19.0331 17.7815 19.0224 17.8846V18.4994C19.0224 19.3433 18.3814 20.0268 17.59 20.0268H17.017C16.9776 20.0268 16.9382 20.0268 16.8988 20.023C16.8487 20.0268 16.7986 20.0268 16.7484 20.0268H15.5846H14.7252C13.9337 20.0268 13.2927 19.3433 13.2927 18.4994V17.5829V15.139C13.2927 14.4631 12.7807 13.917 12.1468 13.917H9.85495C9.2211 13.917 8.70902 14.4631 8.70902 15.139V17.5829V18.4994C8.70902 19.3433 8.06801 20.0268 7.2766 20.0268H6.41715H5.2748C5.22109 20.0268 5.16737 20.023 5.11366 20.0192C5.07069 20.023 5.02771 20.0268 4.98474 20.0268H4.41178C3.62037 20.0268 2.97936 19.3433 2.97936 18.4994V14.2225C2.97936 14.1881 2.97936 14.1499 2.98294 14.1156V11.4578H1.83343C1.18884 11.4578 0.6875 10.9232 0.6875 10.232C0.6875 9.88835 0.794931 9.58286 1.0456 9.31555L10.2274 0.780894C10.478 0.513589 10.7645 0.475403 11.0152 0.475403C11.2659 0.475403 11.5524 0.551776 11.7672 0.742708L20.9132 9.31555C21.1997 9.58286 21.3429 9.88835 21.3071 10.232Z" fill="#A69E9E"/>
</svg>
