<svg width="22" height="23" viewBox="0 0 22 23" fill="none" xmlns="http://www.w3.org/2000/svg">
<g clip-path="url(#clip0_118_627)">
<path d="M17.4453 9.39958C17.4453 11.3689 16.8451 13.1881 15.834 14.664L20.9338 20.1C21.4374 20.6363 21.4374 21.5073 20.9338 22.0436C20.4303 22.5799 19.6125 22.5799 19.109 22.0436L14.0092 16.6076C12.6234 17.6888 10.9154 18.3238 9.06641 18.3238C4.43787 18.3238 0.6875 14.3293 0.6875 9.39958C0.6875 4.46983 4.43787 0.475403 9.06641 0.475403C13.6949 0.475403 17.4453 4.46983 17.4453 9.39958ZM9.06641 15.5779C9.82818 15.5779 10.5825 15.4181 11.2863 15.1076C11.9901 14.7971 12.6295 14.342 13.1682 13.7683C13.7068 13.1946 14.1341 12.5135 14.4256 11.7639C14.7171 11.0143 14.8672 10.2109 14.8672 9.39958C14.8672 8.58824 14.7171 7.78484 14.4256 7.03526C14.1341 6.28568 13.7068 5.60459 13.1682 5.03088C12.6295 4.45717 11.9901 4.00209 11.2863 3.6916C10.5825 3.38111 9.82818 3.2213 9.06641 3.2213C8.30464 3.2213 7.55033 3.38111 6.84654 3.6916C6.14276 4.00209 5.50329 4.45717 4.96463 5.03088C4.42598 5.60459 3.9987 6.28568 3.70718 7.03526C3.41567 7.78484 3.26562 8.58824 3.26562 9.39958C3.26562 10.2109 3.41567 11.0143 3.70718 11.7639C3.9987 12.5135 4.42598 13.1946 4.96463 13.7683C5.50329 14.342 6.14276 14.7971 6.84654 15.1076C7.55033 15.4181 8.30464 15.5779 9.06641 15.5779Z" fill="#A69E9E"/>
</g>
<defs>
<clipPath id="clip0_118_627">
<rect width="20.625" height="21.9672" fill="white" transform="translate(0.6875 0.475403)"/>
</clipPath>
</defs>
</svg>
