<svg width="24" height="25" viewBox="0 0 24 25" fill="none" xmlns="http://www.w3.org/2000/svg">
<path d="M23.6046 8.13636C23.7616 8.56124 23.6291 9.03497 23.2907 9.33776L21.1668 11.262C21.2208 11.6673 21.2502 12.0824 21.2502 12.5024C21.2502 12.9224 21.2208 13.3376 21.1668 13.7429L23.2907 15.6671C23.6291 15.9699 23.7616 16.4436 23.6046 16.8685C23.3888 17.4497 23.1288 18.0064 22.8296 18.5437L22.5991 18.9392C22.2753 19.4765 21.9124 19.9844 21.5151 20.463C21.2257 20.8146 20.745 20.9318 20.3134 20.7951L17.5813 19.9307C16.924 20.4337 16.1981 20.8537 15.4231 21.1711L14.81 23.9598C14.7119 24.4042 14.3685 24.7558 13.9173 24.8291C13.2404 24.9414 12.5439 25 11.8327 25C11.1214 25 10.4249 24.9414 9.74804 24.8291C9.29678 24.7558 8.95343 24.4042 8.85533 23.9598L8.24221 21.1711C7.46723 20.8537 6.74129 20.4337 6.08402 19.9307L3.35686 20.8C2.92522 20.9367 2.44453 20.8146 2.15514 20.4679C1.75783 19.9893 1.39487 19.4813 1.07114 18.9441L0.840603 18.5485C0.541399 18.0113 0.281436 17.4546 0.0656167 16.8734C-0.0913426 16.4485 0.0410918 15.9748 0.379535 15.672L2.50339 13.7478C2.44943 13.3376 2.42001 12.9224 2.42001 12.5024C2.42001 12.0824 2.44943 11.6673 2.50339 11.262L0.379535 9.33776C0.0410918 9.03497 -0.0913426 8.56124 0.0656167 8.13636C0.281436 7.55519 0.541399 6.99844 0.840603 6.46122L1.07114 6.06564C1.39487 5.52842 1.75783 5.02051 2.15514 4.5419C2.44453 4.19027 2.92522 4.07306 3.35686 4.20981L6.08893 5.07423C6.74619 4.57121 7.47213 4.1512 8.24712 3.83376L8.86024 1.04513C8.95834 0.600703 9.30169 0.249072 9.75294 0.175816C10.4298 0.0586052 11.1263 0 11.8376 0C12.5488 0 13.2453 0.0586052 13.9222 0.170932C14.3734 0.244188 14.7168 0.595819 14.8149 1.04024L15.428 3.82887C16.203 4.14632 16.9289 4.56632 17.5862 5.06935L20.3183 4.20492C20.7499 4.06818 21.2306 4.19027 21.52 4.53702C21.9173 5.01563 22.2803 5.52354 22.604 6.06075L22.8345 6.45634C23.1337 6.99355 23.3937 7.5503 23.6095 8.13147L23.6046 8.13636ZM11.8376 16.4095C12.8783 16.4095 13.8763 15.9978 14.6122 15.2651C15.3481 14.5324 15.7615 13.5386 15.7615 12.5024C15.7615 11.4662 15.3481 10.4725 14.6122 9.73977C13.8763 9.00706 12.8783 8.59543 11.8376 8.59543C10.7969 8.59543 9.79877 9.00706 9.06289 9.73977C8.327 10.4725 7.91358 11.4662 7.91358 12.5024C7.91358 13.5386 8.327 14.5324 9.06289 15.2651C9.79877 15.9978 10.7969 16.4095 11.8376 16.4095Z" fill="#54B435"/>
</svg>
